<svg xmlns="http://www.w3.org/2000/svg" viewBox="0 0 1024 1024">
  <rect width="1024" height="1024" fill="none"/>
  <path d="M764.48 648.96c-75.52-55.68-185.6-88.32-274.56-88.32-130.56 0-248.32 48.64-337.28 129.28-7.04 6.4-0.64 15.36 7.68 10.24 96-55.68 214.4-89.6 336.64-89.6 82.56 0 173.44 17.28 257.28 52.48 12.8 5.76 23.68-8.32 10.24-14.08z" fill="#00A8E1"/>
  <path d="M798.08 687.36c-9.6-12.16-63.36-5.76-87.68-2.88-7.04 0.64-8.32-5.76-1.92-10.24 43.52-30.72 114.56-21.76 122.88-11.52 8.32 10.24-2.24 81.28-42.88 115.2-6.4 5.12-12.16 2.56-9.6-4.48 9.6-23.04 30.72-74.88 19.2-86.08z" fill="#00A8E1"/>
  <path d="M718.72 409.6h-43.52c-4.48-0.32-7.68-3.52-8.32-7.36V299.52c0-5.12 4.48-9.6 9.6-9.6h41.28c4.48 0 8.32 3.52 8.96 8.32v14.08c0 0 19.84-36.48 57.28-36.48 27.52 0 44.16 9.6 44.16 9.6 5.76 2.56 6.4 9.6 2.56 14.72l-23.04 35.84c-2.56 4.48-8.96 5.12-12.8 2.56 0 0-11.52-6.4-26.56-6.4-29.44 0-42.24 20.48-42.24 20.48v48.32c-0.64 4.48-4.48 8.32-8.96 8.32m-72.96 0h-42.88c-4.48 0-8.32-3.84-8.96-8.32V238.72c0-5.12 4.48-8.96 9.6-8.96h40.32c4.48 0 8.32 3.84 8.96 8.32v162.56c0 4.48-3.84 8.32-8.32 8.96h1.28zm-61.44-129.92c0 6.4-5.12 11.52-11.52 11.52s-11.52-5.12-11.52-11.52 5.12-11.52 11.52-11.52c6.4-0.64 11.52 4.48 11.52 11.52z" fill="#00A8E1"/>
  <path d="M574.72 347.52h-59.52c-5.12 0-8.96 4.48-8.96 9.6v103.04c0 5.12 4.48 9.6 9.6 9.6h59.52c5.12 0 8.96-4.48 8.96-9.6v-12.8c0-33.92 0-69.12-0.64-103.04 0-4.48-4.48-8.32-8.96-8.32v11.52z" fill="#00A8E1"/>
  <path d="M512 385.92c16.64-25.6 43.52-38.4 71.04-38.4h8.32v31.36h-8.32c-16 0-31.36 8.32-39.68 21.76-4.48 7.36-7.04 15.36-7.04 24.32v45.44h-32v-103.04c0-5.12 4.48-9.6 9.6-9.6h5.76c4.48 0 8.32 3.84 8.96 8.32-1.28 4.48-8.96 14.08-16.64 19.84z" fill="#00A8E1"/>
  <path d="M329.6 409.6h-42.88c-4.48 0-8.32-3.84-8.96-8.32V238.72c0-5.12 4.48-8.96 9.6-8.96H328c4.48 0 8.32 3.84 8.96 8.32v162.56c0 4.48-3.84 8.32-7.36 8.96m-61.44-129.92c0 6.4-5.12 11.52-11.52 11.52s-11.52-5.12-11.52-11.52 5.12-11.52 11.52-11.52c6.4-0.64 11.52 4.48 11.52 11.52z" fill="#00A8E1"/>
  <path d="M444.8 345.6c0 0-17.92-8.32-27.52-8.32-16.64 0-25.6 6.4-25.6 16 0 17.28 51.84 15.36 51.84 57.28 0 39.68-35.2 52.48-67.84 52.48-19.2 0-38.4-5.76-38.4-5.76-5.12-1.28-8.32-5.76-6.4-10.88l3.84-12.16c1.28-4.48 5.76-6.4 10.24-5.12 0 0 16.64 7.68 30.72 7.68 12.16 0 26.24-5.12 26.24-17.28 0-18.56-52.48-17.28-52.48-56.96 0-36.48 32-51.84 60.16-51.84 21.12 0 40.32 5.12 40.32 5.12 5.12 1.28 8.32 5.76 6.4 10.88l-3.84 12.16c-1.28 3.2-4.48 5.76-7.68 6.72" fill="#00A8E1"/>
</svg>
