<svg xmlns="http://www.w3.org/2000/svg" viewBox="0 0 1024 1024">
  <rect width="1024" height="1024" fill="none"/>
  <path d="M672.4 473.7c-.6-71.2 58.1-105.6 60.8-107.2-33.1-48.4-84.7-55-103-55.8-43.8-4.5-85.6 25.8-107.9 25.8-22.3 0-56.8-25.2-93.3-24.5-48 .7-92.2 27.9-117 70.8-49.8 86.5-12.7 214.6 35.8 284.8 23.8 34.4 52.1 73 89.4 71.6 35.8-1.4 49.3-23.2 92.6-23.2 43.3 0 55.6 23.2 93.5 22.4 38.6-.6 63.1-35.1 86.7-69.6 27.3-40 38.5-78.8 39.2-80.8-.9-.4-75.2-28.8-75.8-114.3zm-71.1-210c19.7-24 33-57.2 29.4-90.4-28.4 1.2-62.8 18.9-83.2 42.9-18.2 21.1-34.2 54.9-29.9 87.4 31.7 2.5 64-16.1 83.7-39.9z" fill="#FA243C"/>
</svg>
