<svg xmlns="http://www.w3.org/2000/svg" viewBox="0 0 1024 1024">
  <rect width="1024" height="1024" fill="none"/>
  <path d="M819 476.5c-11.5-7.9-27.8-11.2-49.5-12.7-1.4-.1-2.9-.2-4.3-.4-.2 0-.3 0-.5-.1-28-2.5-63.1-5.7-83.7-31.1-10.6-13.1-14.4-30.7-11.4-52.1 4.2-29.7 20.5-49.1 46.7-55.5 10.4-2.5 20.9-2.7 31.3-.7 31.7 6.5 53.2 28.2 64.7 65.1 1 3.3 1.9 6.7 3 10.9h55c-5.5-25.1-14-47.4-31.4-67-18.8-21.2-42.4-34-69.8-38.8-52.5-9.2-107.4 10.6-129.3 70.1-10 27.3-10.6 55-1.5 82.7 9.2 28 28.5 47.6 54.2 60.7 12 6.1 25 9.5 38.3 11.5 18.7 2.8 37.5 5.5 56.1 9.2 10.3 2 20.5 4.9 30.2 8.8 19 7.7 29.7 22.2 31.3 42.8 1.8 24.2-9.5 44.4-30.1 55.3-13.8 7.3-28.7 9.5-44.1 8.1-32.8-2.9-55.9-19.5-69-49-3.2-7.1-5.3-14.7-7.8-22.2h-54.3c2.4 13.2 4.4 26.1 9.2 38.2 12.1 30.5 34.1 52.3 64 65.2 28.8 12.4 58.3 14 88.4 6.8 44.8-10.7 78.5-51.6 81.9-99.2 1.9-26.9-4.4-51.9-22.6-73.1-2.2-2.5-4.5-4.9-7-7.3zm-638 72.7V424.8c14.7-1.1 29.3-3.2 43.6-1.4 23.3 2.9 36.3 19.9 35.6 43.6-.8 23.2-14.9 39.8-37 42.8-13.9 1.9-27.9.2-42.3.2V385.8h-58.6v252.9h58.4v-67.7c4.6 0 8.6-.3 12.6 0 9.7.8 16.8 6.1 21.6 14 10.9 17.6 21.7 35.3 32.4 53 2.1 3.4 4.4 6.7 6.7 10h65.3c-1.4-2.7-2.3-4.7-3.5-6.6-16.8-26.9-33.7-53.8-50.6-80.7-2.2-3.5-2.1-5.8.2-9 9-13 16.7-27.5 17.2-43.8 0-2.3.5-4.7.9-7.5zm223.3-130.5c-12.9-13.5-28.9-21.6-46.3-26.4-41.6-11.6-82.7-9.3-121.7 10.8-19.3 10-34.5 24.3-44.4 43.7-16.5 32.3-18.3 66.4-12 101.2 6.5 35.6 23.9 64.7 57 83 32.9 18.2 68.2 21.4 104.7 13.7 29-6.1 53.3-20.5 71.5-44.1 21.9-28.3 30.3-61.2 28-96.9-1.7-28.4-10.8-54.1-32-77.4-1.6-1.6-3.2-3.2-4.8-4.6v-3zm-128.9 127.5c-1.4-10.2-.7-20.4 1.7-30.4 6.3-26 29.5-41 57.3-35.6 23 4.4 38.7 20.7 41.6 48.2 3.5 32.4-11.1 60.4-34.9 67.8-28.8 9-55.5-7.8-63.2-35.2-.9-4.8-1.5-9.7-2.5-14.8zm401.8-138.3v252.6h58.5V407.9h-58.5zm-61.3 252.6h58.4V335.8h-58.4v324.7zm-253 0h57.1V335.8h-57.1v324.7z" fill="#0063E5"/>
</svg>
