<svg xmlns="http://www.w3.org/2000/svg" viewBox="0 0 1024 1024">
  <rect width="1024" height="1024" fill="none"/>
  <path d="M827.1 671.5c-18.2 5.8-61.9 19-84.1 23.6-88.1 18.2-147.8-4.9-147.8-68.4 0-46.1 31.2-84.1 76.5-102.3v-182.3l58.7 19.9v165.9c0 3.3 2.5 5.8 6.6 5.8 20.7 0 51.9 19.9 51.9 58.7 0 35.3-22.4 54.3-61.8 79.1zm-331.7 48.5l-118.2-37.8c-86.6-26.5-99.7-65.1-60.2-89.9 39.5-23.2 106.3-34.5 106.3-34.5v-238.2l72 24v210.9c87.5-9.1 145.3 8.2 145.3 61.9-.1 53.7-59.4 78.5-145.2 103.6zm250.5-390.3l-86.6-27.3V128h29.8c39.5 0 66 9.1 66 43.6v111c0 28.1-2.5 43.6-9.2 46.1z" fill="#0070D1"/>
</svg>
