<svg xmlns="http://www.w3.org/2000/svg" viewBox="0 0 1024 1024">
  <rect width="1024" height="1024" fill="none"/>
  <path d="M512 128C300.36 128 128 300.36 128 512s172.36 384 384 384 384-172.36 384-384S723.64 128 512 128zm176.61 553.88c-6.94 11.31-21.63 14.93-33.02 8.07-90.38-55.05-204.16-67.52-338.18-37.02-12.95 2.95-25.87-5.09-28.82-18.02-2.95-12.95 5.09-25.87 18.02-28.82 146.54-33.48 272.27-19.06 374.93 42.7 11.37 6.86 15.01 21.56 7.07 33.09zm47.04-104.61c-8.67 14.09-27.1 18.53-41.19 9.86-103.45-63.58-261.09-81.98-383.44-44.88-15.86 4.83-32.63-4.05-37.46-19.89-4.81-15.86 4.07-32.63 19.91-37.46 139.45-42.24 312.64-21.8 430.35 51.18 14.09 8.67 18.53 27.1 9.83 41.19zm4.07-108.91c-124.07-73.69-328.71-80.43-447.17-44.51-19.02 5.77-39.14-5.02-44.91-24.04-5.77-19.02 5.02-39.14 24.04-44.91 136.24-41.36 362.59-33.37 505.35 51.56 17.24 10.23 22.92 32.45 12.69 49.69-10.21 17.22-32.47 22.92-49.69 12.69l-.31-.48z" fill="#1DB954"/>
</svg>
