<svg xmlns="http://www.w3.org/2000/svg" viewBox="0 0 1024 1024">
  <rect width="1024" height="1024" fill="none"/>
  <path d="M512 256c43.8 0 84.5 13.6 118 36.8 10.2 7.2 24.8 7.2 35-.2 9.2-6.6 14-17.4 12.8-28.4-1.2-10.8-8.4-19.8-18.6-24-47.6-22.8-96-34.4-147.2-34.4-52.4 0-102.2 12-147.2 34-10.2 4.4-17.2 13.4-18.4 24.2-1.2 11 3.6 21.8 12.8 28.4 9.8 7.2 24 7.4 34 .2 33.4-23 74.2-36.6 118.8-36.6zm0 64c-135.2 0-244.8 109.6-244.8 244.8 0 135.2 109.6 244.8 244.8 244.8 135.2 0 244.8-109.6 244.8-244.8 0-135.2-109.6-244.8-244.8-244.8zm190.4 116.2c16.4 19.8 50.2 63.4 50.2 128.6 0 64.4-33 107.2-50.2 128.6-6.4 8-17.8 10.6-27.2 6-9.4-4.4-14.2-14.8-11.4-24.8 2.6-9.2 5-19.6 7-31.6 2-12 3-26 3-44.4v-67.6c0-18.4-1-32.4-3-44.4-2-12-4.4-22.4-7-31.6-2.8-10 2-20.4 11.4-24.8 9.4-4.6 20.8-2 27.2 6zM289.4 436.2c16.4-19.8 50.2-63.4 50.2-128.6 0-64.4-33-107.2-50.2-128.6-6.4-8-17.8-10.6-27.2-6-9.4 4.4-14.2 14.8-11.4 24.8 2.6 9.2 5 19.6 7 31.6 2 12 3 26 3 44.4v67.6c0 18.4-1 32.4-3 44.4-2 12-4.4 22.4-7 31.6-2.8 10 2 20.4 11.4 24.8 9.4 4.6 20.8 2 27.2-6z" fill="#107C10"/>
</svg>
